<svg xmlns="http://www.w3.org/2000/svg" viewBox="0 0 1920 4000"><defs><style>.cls-1{opacity:0.7;}.cls-2{opacity:0.3;}.cls-3{fill:#ccc;}</style></defs><title>bg-sipnie</title><g id="Capa_1" data-name="Capa 1" class="cls-1"><g class="cls-2"><path class="cls-3" d="M1021.38,1372.54a137.07,137.07,0,0,0,98.15-75.78l319.53,71.65A212.79,212.79,0,0,0,1497,1531.58l-39.25,49.64a136.52,136.52,0,0,0-84.66-11c-74.33,14.15-123.3,86.12-109.15,160.46s86.13,123.28,160.46,109.13,123.29-86.11,109.15-160.44a136.23,136.23,0,0,0-27.94-60.35l39.25-49.66a212.78,212.78,0,0,0,274.32-52.21l54.75,31.77a136.39,136.39,0,0,0-3.82,66.39c14.15,74.33,86.13,123.28,160.46,109.14s123.29-86.12,109.15-160.45-86.13-123.29-160.46-109.14a136.45,136.45,0,0,0-74.71,41.32l-54.73-31.76a212.73,212.73,0,0,0-6.08-173l270.88-184a137.14,137.14,0,0,0,119.13,34.43c74.33-14.15,123.29-86.12,109.15-160.45s-86.13-123.29-160.46-109.14-123.29,86.13-109.15,160.45a137.28,137.28,0,0,0,7,24.29l-270.9,184a215,215,0,0,0-96.67-60.6L1753,906.26l.29-2a173.47,173.47,0,0,0,27.72-3c95-18.07,157.53-110,139.46-205s-110-157.55-205-139.47-157.55,110.05-139.47,205a175.45,175.45,0,0,0,117,133.54l-40.55,276.05a215,215,0,0,0-40.46,3.75c-75.33,14.34-133.88,66.87-159.47,133.72l-319.55-71.64a136.73,136.73,0,0,0-2.4-25.16c-14.14-74.33-86.13-123.29-160.45-109.15s-123.3,86.13-109.15,160.46S947.05,1386.69,1021.38,1372.54ZM1407.28,1750a45.74,45.74,0,1,1,36.38-53.49A45.81,45.81,0,0,1,1407.28,1750Zm589.06-205.24a45.74,45.74,0,1,1-36.38,53.49A45.8,45.8,0,0,1,1996.34,1544.73Zm203.18-582.65a45.74,45.74,0,1,1-36.38,53.49A45.8,45.8,0,0,1,2199.52,962.08ZM1735.4,661.64a68.61,68.61,0,1,1-54.58,80.24A68.7,68.7,0,0,1,1735.4,661.64ZM1634.74,1295A91.48,91.48,0,1,1,1562,1402,91.58,91.58,0,0,1,1634.74,1295ZM987.17,1192.82a45.74,45.74,0,1,1-36.38,53.49A45.79,45.79,0,0,1,987.17,1192.82Z"/></g><g class="cls-2"><path class="cls-3" d="M790.42,1875.38a137.1,137.1,0,0,0,62.2,107.28L739.52,2290a212.82,212.82,0,0,0-169.38,35.92l-44-45.43a136.52,136.52,0,0,0,22-82.48c-4.23-75.55-69.13-133.56-144.68-129.33s-133.55,69.15-129.32,144.69,69.14,133.56,144.68,129.33a136.23,136.23,0,0,0,63.5-19.75l44.06,45.45A212.8,212.8,0,0,0,542,2647.17l-38.7,50.09A136.31,136.31,0,0,0,438,2684.74c-75.55,4.23-133.55,69.14-129.31,144.68S377.82,2963,453.36,2958.75s133.56-69.15,129.33-144.69a136.55,136.55,0,0,0-31.13-79.5l38.69-50.07a212.74,212.74,0,0,0,172.33,16.76L909.32,2994a137.11,137.11,0,0,0-49.81,113.56c4.23,75.54,69.13,133.56,144.67,129.32s133.56-69.14,129.33-144.69-69.15-133.56-144.69-129.32a136.2,136.2,0,0,0-25,3.77L817.08,2673.86A214.85,214.85,0,0,0,889.89,2586l266.42,76,1.91.55a173.23,173.23,0,0,0-.68,27.87c5.41,96.53,88.35,170.65,184.87,165.24s170.67-88.35,165.26-184.87-88.35-170.67-184.89-165.26A175.45,175.45,0,0,0,1175,2603.94l-268.31-76.55a214.52,214.52,0,0,0,1.61-40.6c-4.29-76.56-48.66-141.52-111.56-175.69l113.1-307.33a137.56,137.56,0,0,0,25.26.93c75.54-4.23,133.56-69.14,129.32-144.69s-69.14-133.56-144.69-129.32S786.19,1799.83,790.42,1875.38ZM365.47,2208.22a45.74,45.74,0,1,1,48.23,43.11A45.8,45.8,0,0,1,365.47,2208.22Zm125.88,611a45.74,45.74,0,1,1-48.23-43.11A45.78,45.78,0,0,1,491.35,2819.18Zm550.82,278.14a45.74,45.74,0,1,1-48.23-43.11A45.8,45.8,0,0,1,1042.17,3097.32Zm358.94-420.53a68.61,68.61,0,1,1-72.35-64.67A68.69,68.69,0,0,1,1401.11,2676.79ZM786.53,2493.61a91.48,91.48,0,1,1-96.46-86.2A91.58,91.58,0,0,1,786.53,2493.61Zm186.55-628.47A45.74,45.74,0,1,1,924.85,1822,45.79,45.79,0,0,1,973.08,1865.14Z"/></g><g class="cls-2"><path class="cls-3" d="M1388.52-76.51A60.09,60.09,0,0,0,1441-62.4L1500.85,68a93.27,93.27,0,0,0-41.52,63.51l-27.73-.5a60.13,60.13,0,1,0-.47,26.72l27.73.5a93.26,93.26,0,0,0,91,81.8l3.45,27.52a60.27,60.27,0,1,0,26.52-3.32l-3.45-27.52a93.22,93.22,0,0,0,58.72-48.06l136.08,45.6a60.15,60.15,0,1,0,8.47-25.34l-136.08-45.61a94.18,94.18,0,0,0-4.53-49.8l106.27-58.73.76-.42a75.42,75.42,0,0,0,8.41,8.87A76.93,76.93,0,0,0,1863,57.46a76.93,76.93,0,0,0-5.8-108.52,76.93,76.93,0,0,0-108.52,5.8A76.9,76.9,0,0,0,1733.2,31l-107,59.15a93.39,93.39,0,0,0-101-33.22L1465.31-73.53a60.58,60.58,0,0,0,8.14-7.52,60.21,60.21,0,0,0-4.54-84.92,60.2,60.2,0,0,0-84.93,4.54A60.2,60.2,0,0,0,1388.52-76.51Zm-29.15,234.76a20,20,0,1,1,28.31-1.51A20.07,20.07,0,0,1,1359.37,158.25Zm228,150.92a20,20,0,1,1-28.31,1.51A20.07,20.07,0,0,1,1587.32,309.17Zm257.11-83.84a20.05,20.05,0,1,1-28.31,1.52A20.07,20.07,0,0,1,1844.43,225.33ZM1826-16.27a30.11,30.11,0,0,1,2.27,42.47A30.07,30.07,0,0,1,1783.5-14,30.12,30.12,0,0,1,1826-16.27ZM1578.4,116.78a40.09,40.09,0,1,1-56.61,3A40.14,40.14,0,0,1,1578.4,116.78ZM1442.11-136.15a20.07,20.07,0,0,1,1.51,28.31,20.07,20.07,0,0,1-28.31,1.51,20.07,20.07,0,0,1-1.51-28.31A20.07,20.07,0,0,1,1442.11-136.15Z"/></g><g class="cls-2"><path class="cls-3" d="M176.36,3225.16a60.08,60.08,0,0,0,52.48,14.11l59.85,130.44a93.26,93.26,0,0,0-41.52,63.51l-27.73-.5a60.21,60.21,0,1,0-.48,26.72l27.74.51a93.26,93.26,0,0,0,91,81.79l3.46,27.53a60.21,60.21,0,1,0,26.52-3.33l-3.46-27.52A93.25,93.25,0,0,0,423,3490.37L559.05,3536a60.1,60.1,0,1,0,15.08-34.25,60.78,60.78,0,0,0-6.6,8.9L431.44,3465a94.19,94.19,0,0,0-4.53-49.8l106.27-58.73.77-.42a76.93,76.93,0,1,0-12.91-23.4L414,3391.8a93.44,93.44,0,0,0-101-33.21l-59.86-130.45a60.13,60.13,0,1,0-76.78-3ZM147.2,3459.93a20.05,20.05,0,1,1,28.31-1.52A20.08,20.08,0,0,1,147.2,3459.93Zm228,150.91a20,20,0,1,1-28.31,1.52A20.07,20.07,0,0,1,375.16,3610.84ZM632.26,3527a20,20,0,1,1-28.3,1.51A20,20,0,0,1,632.26,3527ZM613.81,3285.4a30.07,30.07,0,1,1-42.47,2.27A30.1,30.1,0,0,1,613.81,3285.4Zm-247.57,133a40.09,40.09,0,1,1-56.61,3A40.14,40.14,0,0,1,366.24,3418.45ZM230,3165.52a20,20,0,1,1-28.31,1.52A20.07,20.07,0,0,1,230,3165.52Z"/></g><g class="cls-2"><path class="cls-3" d="M1065.14,573.93a47.69,47.69,0,0,0,41.64,11.19l47.49,103.5a74,74,0,0,0-33,50.39l-22-.4a47.75,47.75,0,1,0-.38,21.21l22,.39a74,74,0,0,0,72.23,64.9l2.74,21.84a47.83,47.83,0,1,0,21-2.63l-2.74-21.84a73.94,73.94,0,0,0,46.59-38.13l108,36.18a47.69,47.69,0,1,0,12-27.17,46.91,46.91,0,0,0-5.24,7.06l-108-36.19a74.77,74.77,0,0,0-3.59-39.51l84.32-46.6.6-.33a61.05,61.05,0,1,0-10.24-18.57l-84.92,46.93a74.1,74.1,0,0,0-80.15-26.36l-47.49-103.5a47.71,47.71,0,1,0-60.92-2.36ZM1042,760.2a15.91,15.91,0,1,1,22.47-1.2A15.93,15.93,0,0,1,1042,760.2Zm180.87,119.74a15.9,15.9,0,1,1-22.46,1.2A15.91,15.91,0,0,1,1222.87,879.94Zm204-66.52a15.91,15.91,0,1,1-22.46,1.2A15.91,15.91,0,0,1,1426.87,813.42Zm-14.64-191.69a23.86,23.86,0,1,1-33.7,1.8A23.89,23.89,0,0,1,1412.23,621.73ZM1215.8,727.29a31.82,31.82,0,1,1-44.92,2.41A31.86,31.86,0,0,1,1215.8,727.29ZM1107.66,526.6a15.91,15.91,0,1,1-22.47,1.21A15.94,15.94,0,0,1,1107.66,526.6Z"/></g><g class="cls-2"><path class="cls-3" d="M1601.92,1945.75a47.7,47.7,0,0,0,41.64,11.19l47.49,103.5a74,74,0,0,0-33,50.39l-22-.4a47.75,47.75,0,1,0-.38,21.21l22,.4a74,74,0,0,0,72.23,64.89l2.74,21.84a47.83,47.83,0,1,0,21-2.63L1751,2194.3a74,74,0,0,0,46.6-38.13l108,36.18a47.76,47.76,0,1,0,6.72-20.11l-108-36.19a74.87,74.87,0,0,0-3.6-39.51l84.32-46.6.61-.33A61,61,0,1,0,1875.4,2031L1790.48,2078a74.1,74.1,0,0,0-80.15-26.36l-47.49-103.5a47.71,47.71,0,1,0-60.92-2.36ZM1578.79,2132a15.9,15.9,0,1,1,22.46-1.2A15.93,15.93,0,0,1,1578.79,2132Zm180.86,119.74a15.9,15.9,0,1,1-22.46,1.2A15.91,15.91,0,0,1,1759.65,2251.76Zm204-66.52a15.91,15.91,0,1,1-22.46,1.2A15.92,15.92,0,0,1,1963.65,2185.24ZM1949,1993.55a23.86,23.86,0,1,1-33.7,1.8A23.89,23.89,0,0,1,1949,1993.55Zm-196.43,105.56a31.81,31.81,0,1,1-44.92,2.41A31.86,31.86,0,0,1,1752.58,2099.11Zm-108.14-200.68a15.9,15.9,0,1,1-22.46,1.2A15.93,15.93,0,0,1,1644.44,1898.43Z"/></g><g class="cls-2"><path class="cls-3" d="M1200.75,2118.49a28.31,28.31,0,0,0,1.46,25.59l-49.53,46.12a44,44,0,0,0-34.59-9.17l-3.89-12.49a28.41,28.41,0,1,0-12,3.74l3.88,12.5a44,44,0,0,0-23.12,52.87l-11.81,5.63a28.46,28.46,0,1,0,5.41,11.38l11.81-5.62a44,44,0,0,0,30.22,19.17l-.25,67.68a28.34,28.34,0,1,0,17.57,1.67,27.93,27.93,0,0,0-5-1.63l.25-67.69a44.48,44.48,0,0,0,21.62-9.41l42,38.88.3.28a36.27,36.27,0,1,0,8.56-9.25l-42.34-39.15a44.11,44.11,0,0,0-.1-50.15l49.53-46.13a28.88,28.88,0,0,0,4.57,2.53,28.36,28.36,0,1,0-14.61-37.35Zm-109.43,21.74a9.45,9.45,0,1,1,4.87,12.45A9.47,9.47,0,0,1,1091.32,2140.23Zm-33.79,124.42a9.45,9.45,0,1,1-4.87-12.45A9.45,9.45,0,0,1,1057.53,2264.65Zm75.64,102.69a9.45,9.45,0,1,1-4.87-12.45A9.46,9.46,0,0,1,1133.17,2367.34Zm105.44-44.07a14.18,14.18,0,1,1-7.31-18.68A14.21,14.21,0,0,1,1238.61,2323.27Zm-96.26-91.12a18.91,18.91,0,1,1-9.75-24.9A18.93,18.93,0,0,1,1142.35,2232.15Zm93-98.51a9.45,9.45,0,1,1-4.87-12.45A9.46,9.46,0,0,1,1235.39,2133.64Z"/></g><g class="cls-2"><path class="cls-3" d="M1822.7,2690.09a28.36,28.36,0,0,0-10.55,23.36l-65.26,17.94a44,44,0,0,0-26.41-24.15l2.34-12.87a28.34,28.34,0,1,0-12.4-2.25l-2.34,12.87a44,44,0,0,0-45,36.16l-13.08-.48a28.43,28.43,0,1,0-.47,12.59l13.07.48a43.92,43.92,0,0,0,9.46,23,44.52,44.52,0,0,0,8.45,8L1649,2844.6a28.34,28.34,0,1,0,14.79,9.62,28.74,28.74,0,0,0-3.64-3.75l31.57-59.87a44.38,44.38,0,0,0,23.52,1.67l19.26,53.93.14.38a37.12,37.12,0,0,0-4.77,3.24,36.27,36.27,0,1,0,16.64-7.47l-19.39-54.3a44.16,44.16,0,0,0,23.13-44.5l65.26-17.94a29.59,29.59,0,0,0,2.88,4.36,28.37,28.37,0,1,0,4.34-39.88Zm-107-31.4a9.45,9.45,0,1,1-1.45,13.29A9.46,9.46,0,0,1,1715.65,2658.69Zm-87.56,94.63a9.46,9.46,0,1,1,1.44-13.29A9.47,9.47,0,0,1,1628.09,2753.32Zm19.48,126a9.45,9.45,0,1,1,1.45-13.29A9.47,9.47,0,0,1,1647.57,2879.36Zm113.86,9.76a14.18,14.18,0,1,1,2.17-19.94A14.19,14.19,0,0,1,1761.43,2889.12Zm-43.12-125.33a18.91,18.91,0,1,1,2.89-26.59A18.92,18.92,0,0,1,1718.31,2763.79Zm128.08-44.22a9.45,9.45,0,1,1,1.45-13.29A9.47,9.47,0,0,1,1846.39,2719.57Z"/></g><g class="cls-2"><path class="cls-3" d="M668.91,966.86a28.35,28.35,0,0,0-10.55,23.35l-65.26,17.95A44,44,0,0,0,566.69,984L569,971.14a28.34,28.34,0,1,0-12.4-2.25l-2.34,12.87a44,44,0,0,0-45,36.15l-13.08-.48a28.1,28.1,0,0,0-5.75-12.48,28.39,28.39,0,1,0,5.28,25.08l13.07.48a44,44,0,0,0,17.91,31l-31.56,59.87A28.35,28.35,0,1,0,510,1131a27.53,27.53,0,0,0-3.64-3.75l31.57-59.88a44.48,44.48,0,0,0,23.52,1.68L580.68,1123l.14.39a36.28,36.28,0,1,0,11.87-4.23l-19.39-54.31a44.08,44.08,0,0,0,23.13-44.49l65.26-18a28.36,28.36,0,1,0,7.22-35.51Zm-107-31.41a9.46,9.46,0,1,1-1.45,13.29A9.46,9.46,0,0,1,561.86,935.45Zm-87.56,94.63a9.45,9.45,0,1,1,1.44-13.29A9.46,9.46,0,0,1,474.3,1030.08Zm19.48,126a9.45,9.45,0,1,1,1.45-13.29A9.45,9.45,0,0,1,493.78,1156.12Zm113.86,9.77a14.18,14.18,0,1,1,2.17-19.94A14.2,14.2,0,0,1,607.64,1165.89Zm-43.12-125.34a18.91,18.91,0,1,1,2.89-26.58A18.93,18.93,0,0,1,564.52,1040.55ZM692.6,996.33A9.45,9.45,0,1,1,694.05,983,9.46,9.46,0,0,1,692.6,996.33Z"/></g><g class="cls-2"><path class="cls-3" d="M663,3762.21a28.32,28.32,0,0,0-10.55,23.35l-65.26,18a44,44,0,0,0-26.41-24.16l2.34-12.86a28.42,28.42,0,1,0-12.4-2.26l-2.34,12.87a44,44,0,0,0-45,36.16l-13.07-.48a28.43,28.43,0,1,0-.47,12.59l13.07.49a44,44,0,0,0,17.91,31l-31.57,59.87a28.34,28.34,0,1,0,14.8,9.62,29.4,29.4,0,0,0-3.64-3.75l31.56-59.87a44.42,44.42,0,0,0,23.53,1.67l19.26,53.93.13.39a36.3,36.3,0,1,0,11.88-4.23l-19.4-54.31a43.58,43.58,0,0,0,7-4.62,44.11,44.11,0,0,0,16.12-39.88l65.26-17.94a28.82,28.82,0,0,0,2.88,4.36,28.36,28.36,0,1,0,4.34-39.87ZM555.91,3730.8a9.45,9.45,0,1,1-1.45,13.29A9.46,9.46,0,0,1,555.91,3730.8Zm-87.57,94.63a9.45,9.45,0,1,1,1.45-13.29A9.46,9.46,0,0,1,468.34,3825.43Zm19.49,126a9.45,9.45,0,1,1,1.45-13.29A9.47,9.47,0,0,1,487.83,3951.47Zm113.86,9.76a14.18,14.18,0,1,1,2.17-19.93A14.19,14.19,0,0,1,601.69,3961.23ZM558.57,3835.9a18.91,18.91,0,1,1,2.89-26.58A18.92,18.92,0,0,1,558.57,3835.9Zm128.08-44.22a9.46,9.46,0,1,1,1.45-13.29A9.46,9.46,0,0,1,686.65,3791.68Z"/></g><g class="cls-2"><path class="cls-3" d="M182,2377.11a28.35,28.35,0,0,0,5.05,25.13l-42.54,52.63a44,44,0,0,0-35.54-4.21l-5.6-11.82a28.4,28.4,0,1,0-11.39,5.4l5.6,11.82a44,44,0,0,0-15.45,55.61l-10.9,7.23a28.46,28.46,0,1,0,7,10.51l10.9-7.23a43.92,43.92,0,0,0,32.62,14.72l9.28,67a28.35,28.35,0,1,0,17.63-.81,29,29,0,0,0-5.15-.92l-9.28-67.05a44.44,44.44,0,0,0,20.09-12.36l47.1,32.57.33.24a35.52,35.52,0,0,0-2,5.41,36.27,36.27,0,1,0,9.16-15.78l-47.43-32.8a43.41,43.41,0,0,0,3-7.84,44.07,44.07,0,0,0-10.17-41.79l42.55-52.64a29.12,29.12,0,0,0,4.88,1.86A28.36,28.36,0,1,0,182,2377.11ZM76.68,2414a9.45,9.45,0,1,1,6.57,11.64A9.46,9.46,0,0,1,76.68,2414ZM60.74,2542a9.45,9.45,0,1,1-6.58-11.64A9.48,9.48,0,0,1,60.74,2542Zm89.34,91a9.46,9.46,0,1,1-6.58-11.64A9.48,9.48,0,0,1,150.08,2633Zm98.18-58.47a14.18,14.18,0,1,1-9.87-17.46A14.19,14.19,0,0,1,248.26,2574.52Zm-108.13-76.67A18.9,18.9,0,1,1,127,2474.58,18.93,18.93,0,0,1,140.13,2497.85Zm78.26-110.62a9.45,9.45,0,1,1-6.58-11.64A9.46,9.46,0,0,1,218.39,2387.23Z"/></g><g class="cls-2"><path class="cls-3" d="M95.85,480a95.76,95.76,0,0,0,77.25-39.18L383,531.74a148.61,148.61,0,0,0,18.43,119.53L368,680.21a95.89,95.89,0,1,0,27.9,32.19l33.42-28.95a148.63,148.63,0,0,0,195.05,0l33.42,28.95a96,96,0,1,0,27.9-32.19L652.3,651.27a148.61,148.61,0,0,0,18.43-119.53l209.9-90.89a96,96,0,1,0-17-39.08L653.76,492.66a150.12,150.12,0,0,0-58.42-54.21l63.43-182.83.46-1.31a122.63,122.63,0,1,0-40.24-14L555.11,424.44A148.91,148.91,0,0,0,400,492.66L190.06,401.77A95.84,95.84,0,1,0,95.85,480ZM311.36,789.41a31.95,31.95,0,1,1,31.95-31.95A32,32,0,0,1,311.36,789.41Zm431-63.9a31.95,31.95,0,1,1-32,32A32,32,0,0,1,742.37,725.51ZM957.88,352.24a31.95,31.95,0,1,1-32,31.95A32,32,0,0,1,957.88,352.24ZM678.64,85.47a47.93,47.93,0,1,1-47.93,47.93A48,48,0,0,1,678.64,85.47ZM526.86,506.92A63.9,63.9,0,1,1,463,570.82,64,64,0,0,1,526.86,506.92Zm-431-154.68A31.95,31.95,0,1,1,63.9,384.19,32,32,0,0,1,95.85,352.24Z"/></g><g class="cls-2"><path class="cls-3" d="M101.16,1080.11a95.77,95.77,0,0,0,67.67,54.08l4.25,228.69a148.6,148.6,0,0,0-101.15,66.3l-40.18-18.41a95.33,95.33,0,0,0-6.55-59.28A95.94,95.94,0,0,0-101.75,1304a95.94,95.94,0,0,0-47.51,126.94,96,96,0,0,0,126.94,47.52A95,95,0,0,0,14,1449.5l40.2,18.42A148.64,148.64,0,0,0,135,1645.43l-12.5,42.42a96,96,0,1,0,40.86,12.05l12.49-42.4a148.63,148.63,0,0,0,116.43-32.75L462,1778.12a96.19,96.19,0,1,0,28.55-31.62L320.84,1593.11A150,150,0,0,0,346,1517.48l192.68-18,1.38-.13a121.13,121.13,0,0,0,6.63,18.31,122.59,122.59,0,1,0-10.56-60.73l-194,18.16a148.9,148.9,0,0,0-126.37-112.93l-4.26-228.7a95.84,95.84,0,1,0-110.26-53.32ZM-91.11,1404.45a32,32,0,0,1,15.84-42.32A32,32,0,0,1-33,1378a32,32,0,0,1-15.83,42.32A32,32,0,0,1-91.11,1404.45Zm236.75,365.79a31.95,31.95,0,1,1-42.32-15.84A32,32,0,0,1,145.64,1770.24Zm429,41.47a32,32,0,1,1-42.32-15.84A32,32,0,0,1,574.66,1811.71ZM701.74,1447a47.92,47.92,0,1,1-63.48-23.76A48,48,0,0,1,701.74,1447Zm-446.46,36.49a63.9,63.9,0,1,1-84.63-31.67A64,64,0,0,1,255.28,1483.52Zm-37.82-456.36a31.95,31.95,0,1,1-42.32-15.84A32,32,0,0,1,217.46,1027.16Z"/></g><g class="cls-2"><path class="cls-3" d="M906.79,3635.9a95.74,95.74,0,0,0,68.67-52.78l223.09,50.52a148.58,148.58,0,0,0,40.2,114.06l-27.48,34.62a95.88,95.88,0,1,0,33.37,26.48l27.49-34.63a148.64,148.64,0,0,0,191.69-36.06l38.2,22.28a96,96,0,1,0,21.46-36.79l-38.18-22.27a148.65,148.65,0,0,0-4-120.88l189.48-128.12a95.79,95.79,0,1,0-28.75-52.25,94.48,94.48,0,0,0,4.87,17l-189.5,128.12a150.16,150.16,0,0,0-67.44-42.47l28.54-191.41.21-1.37a122.63,122.63,0,1,0-42.13-6.32l-28.75,192.77A148.83,148.83,0,0,0,1208,3592.1l-223.09-50.52a95.85,95.85,0,1,0-78.12,94.32Zm269,264.21a32,32,0,1,1,25.49-37.3A32,32,0,0,1,1175.77,3900.11Zm411.77-142.47a31.95,31.95,0,1,1-25.49,37.31A32,32,0,0,1,1587.54,3757.64ZM1730.34,3351a32,32,0,1,1-25.5,37.3A32,32,0,0,1,1730.34,3351ZM1406.6,3140.41a47.93,47.93,0,1,1-38.25,56A48,48,0,0,1,1406.6,3140.41Zm-71.26,442.25a63.9,63.9,0,1,1-51,74.6A64,64,0,0,1,1335.34,3582.66Zm-452.18-72.34a31.95,31.95,0,1,1-25.49,37.3A32,32,0,0,1,883.16,3510.32Z"/></g></g></svg>